<svg xmlns="http://www.w3.org/2000/svg" width="32" height="32" fill="none"><g clip-path="url(#a)"><path fill="#fff" d="M23.68 13.718c-.354 1.757-.885 2.632-1.593 2.632-.512 0-.956-.32-1.33-.964-.372-.642-.873-1.668-1.502-3.071-.749-1.699-1.438-3.086-2.067-4.17a10.712 10.712 0 0 0-2.417-2.854c-.987-.816-2.166-1.228-3.544-1.228-3.264 0-5.573 2.239-6.932 6.717-.984 3.246-1.527 7.152-1.632 11.71-.01.428-.014.642.069.811a.782.782 0 0 0 .339.347c.167.087.385.087.82.087h2.767c.418 0 .627 0 .787-.078a.76.76 0 0 0 .335-.313c.088-.154.102-.37.13-.799.111-1.66.313-3.051.606-4.174.47-1.816 1.1-2.721 1.886-2.721.55 0 1.025.322 1.417.964.391.645.922 1.726 1.592 3.25 1.025 2.514 2.086 4.489 3.186 5.923 1.103 1.434 2.598 2.15 4.485 2.15 3.189 0 5.418-2.224 6.699-6.67.929-3.236 1.448-7.154 1.557-11.755.01-.429.015-.644-.068-.813a.781.781 0 0 0-.339-.347c-.167-.087-.385-.087-.821-.087h-2.723c-.423 0-.634 0-.796.08a.764.764 0 0 0-.336.32c-.087.157-.097.373-.118.804-.082 1.728-.235 3.144-.457 4.25Z"/></g><defs><clipPath id="a"><path fill="#fff" d="M2.627 4h26.747v24H2.627z"/></clipPath></defs></svg>